<svg xmlns="http://www.w3.org/2000/svg" viewBox="0 0 555.28 346.46"><defs><style>.cls-1,.cls-5,.cls-6{fill:none;}.cls-1,.cls-2,.cls-3,.cls-4,.cls-5,.cls-6{stroke:#231f20;stroke-miterlimit:10;}.cls-1,.cls-3{stroke-width:10px;}.cls-2,.cls-3,.cls-4{fill:#231f20;}.cls-2,.cls-6{stroke-width:5px;}.cls-4{stroke-width:6px;}.cls-5{stroke-width:2px;}.cls-7{fill:#eaeaea;}</style></defs><title>bee</title><g id="Layer_3" data-name="Layer 3"><path class="cls-1" d="M235.33,301.41" transform="translate(-23.5 -255.91)"/></g><g id="Layer_5" data-name="Layer 5"><path class="cls-2" d="M260.62,292.46a13.78,13.78,0,0,1,7.28,11.83c0,7.79-9,14.11-17.84,14.11h-2.35a0,0,0,0,0,0,0A33.06,33.06,0,0,0,249.6,331c23.58-8.77,49.4-11.23,49.4-11.23V278.85a2.31,2.31,0,0,0-2.74-2.27C278.34,279.94,267.73,285.45,260.62,292.46Z" transform="translate(-23.5 -255.91)"/><path class="cls-3" d="M242.92,366a26.1,26.1,0,0,0,6.89,3.43c21.92-7.39,36.28-11,36.28-11q-2.49,4.83-4.92,9.51h0c-.14,1.69-.29,3.36-.44,5,5.51-.08,15.27-.41,15.27-.41V331c-21.42,2.57-40,8.94-47.8,14.43C243.2,349,238,362.42,242.92,366Z" transform="translate(-23.5 -255.91)"/><polyline class="cls-4" points="243.41 190.88 268.89 190.88 268.89 229.43 238.93 229.43 243.41 190.88"/><path class="cls-5" d="M110.94,533.25s45.9-77.52,163.64-167.89" transform="translate(-23.5 -255.91)"/><path class="cls-5" d="M39.67,511" transform="translate(-23.5 -255.91)"/><path class="cls-6" d="M277.44,280.32s3.14-7.73-11.81-21.05" transform="translate(-23.5 -255.91)"/><path class="cls-2" d="M339,292a13.78,13.78,0,0,0-7.28,11.83c0,7.79,9,14.11,17.84,14.11H352s0,0,0,0a33,33,0,0,1-1.92,12.57c-23.58-8.77-49.4-11.23-49.4-11.23l-1-42.68C319.26,279.89,331.58,284.6,339,292Z" transform="translate(-23.5 -255.91)"/><path class="cls-6" d="M328.71,259.77" transform="translate(-23.5 -255.91)"/><path class="cls-6" d="M316.9,280.82" transform="translate(-23.5 -255.91)"/><path class="cls-6" d="M316.9,278.82s-3.14-7.73,11.81-21.05" transform="translate(-23.5 -255.91)"/></g><g id="Layer_7" data-name="Layer 7"><polygon class="cls-2" points="253.91 160.43 268.89 160.43 268.02 132.58 254.73 132.69 253.91 160.43"/><polyline class="cls-2" points="229.34 258.63 271.5 258.63 271.5 286.43 218.11 283.74 229.34 258.63"/></g><g id="Layer_6" data-name="Layer 6"><path class="cls-1" d="M296.53,388.49c-4.7.19-14.13.21-18.3.11-7.36,70.14-25.13,124.63-39.39,146.67C263.51,573.61,297,593.56,297,593.56Z" transform="translate(-23.5 -255.91)"/><path class="cls-1" d="M282.16,363.52S73.28,409.91,29,525.28c0,0,11.55,23.73,81,8,0,0,.53,14.41,16.36,29.31,0,0,12.26,7.53,47.26-31.92.89,12.8,6.2,24.48,17.65,34.09,0,0,63.34,13.44,85.78-191.82h0Q279.54,368.29,282.16,363.52Z" transform="translate(-23.5 -255.91)"/><path class="cls-1" d="M173.56,530.64s19.32-49.78,108.6-167.12" transform="translate(-23.5 -255.91)"/></g><g id="Layer_8" data-name="Layer 8"><path class="cls-5" d="M262.44,373C121.87,451,114.33,473.67,114.33,473.67,47.56,499.59,39.67,511,39.67,511" transform="translate(-23.5 -255.91)"/><path class="cls-5" d="M114.33,473.67c-11,48.37-1.77,57-1.77,57s2.26,37,44.06-19.64" transform="translate(-23.5 -255.91)"/><path class="cls-5" d="M158.46,435.91s-5.69,12.14-2.91,39.28" transform="translate(-23.5 -255.91)"/><path class="cls-5" d="M170.14,428.05s-9.52,29.29,0,31.12" transform="translate(-23.5 -255.91)"/><path class="cls-5" d="M154.79,455.55" transform="translate(-23.5 -255.91)"/><path class="cls-5" d="M129.67,559.67s16.58-13.34,27-48.67c0,0,43.55-69.73,110.3-127.2" transform="translate(-23.5 -255.91)"/><path class="cls-5" d="M177.67,533.25a25.49,25.49,0,0,0,19.25,8.21c12.08-.4,31.08-9.79,50.75-45.79" transform="translate(-23.5 -255.91)"/><path class="cls-5" d="M196.92,541.46c24.58-20.88,71.39-153,71.39-153" transform="translate(-23.5 -255.91)"/><path class="cls-5" d="M191.21,564.73" transform="translate(-23.5 -255.91)"/><path class="cls-1" d="M367,301.14" transform="translate(-23.5 -255.91)"/><path class="cls-3" d="M359.37,365.69a26.47,26.47,0,0,1-6.9,3.43c-21.92-7.39-36.28-11-36.28-11q2.49,4.83,4.93,9.51h0c.14,1.69.28,3.36.43,5-5.5-.09-16.27-.42-16.27-.42V330.67c21.42,2.56,41,8.94,48.81,14.43C359.09,348.63,364.31,362.08,359.37,365.69Z" transform="translate(-23.5 -255.91)"/><polyline class="cls-4" points="311.86 190.54 286.38 190.54 286.38 229.09 316.34 229.09 311.86 190.54"/><path class="cls-5" d="M491.34,532.91S445.45,455.39,327.7,365" transform="translate(-23.5 -255.91)"/><path class="cls-6" d="M336.66,259" transform="translate(-23.5 -255.91)"/><path class="cls-6" d="M324.85,280.05" transform="translate(-23.5 -255.91)"/><polygon class="cls-2" points="301.36 160.09 286.38 160.09 287.25 132.25 300.55 132.36 301.36 160.09"/><polyline class="cls-2" points="325.94 258.3 283.78 258.3 283.78 286.09 337.16 283.4 325.94 258.3"/><path class="cls-1" d="M306.75,388.16c4.7.18,13.13.21,17.3.1,7.36,70.15,25.13,124.64,39.39,146.67-24.66,38.35-57.16,58.3-57.16,58.3Z" transform="translate(-23.5 -255.91)"/><path class="cls-1" d="M320.13,363.19S529,409.57,573.33,525c0,0-11.54,23.73-81,8,0,0-.52,14.41-16.36,29.32,0,0-12.26,7.53-47.25-31.92-.9,12.8-6.2,24.48-17.65,34.09,0,0-63.35,13.43-85.79-191.83h0Q322.73,368,320.13,363.19Z" transform="translate(-23.5 -255.91)"/><path class="cls-1" d="M428.73,530.31s-19.32-49.78-108.6-167.12" transform="translate(-23.5 -255.91)"/><path class="cls-5" d="M339.85,372.68C480.41,450.69,488,473.33,488,473.33c66.77,25.93,74.67,37.34,74.67,37.34" transform="translate(-23.5 -255.91)"/><path class="cls-5" d="M488,473.33c11,48.38,1.77,57,1.77,57s-2.26,37-44.06-19.64" transform="translate(-23.5 -255.91)"/><path class="cls-5" d="M443.83,435.58s5.68,12.14,2.9,39.28" transform="translate(-23.5 -255.91)"/><path class="cls-5" d="M432.14,427.71s9.52,29.3,0,31.13" transform="translate(-23.5 -255.91)"/><path class="cls-5" d="M447.5,455.22" transform="translate(-23.5 -255.91)"/><path class="cls-5" d="M472.62,559.33S456,546,445.66,510.67c0,0-43.55-69.74-110.3-127.2" transform="translate(-23.5 -255.91)"/><path class="cls-5" d="M424.62,532.91a25.47,25.47,0,0,1-19.25,8.21c-12.09-.39-31.09-9.79-50.75-45.79" transform="translate(-23.5 -255.91)"/><path class="cls-5" d="M405.37,541.12c-24.59-20.87-71.39-153-71.39-153" transform="translate(-23.5 -255.91)"/><path class="cls-5" d="M411.08,564.4" transform="translate(-23.5 -255.91)"/><path class="cls-7" d="M282.5,544.5s27.62-.45,41.5-.5h2c13,0-11.93,44-24.72,45.5,0,0-27.28-10-18.28-41Z" transform="translate(-23.5 -255.91)"/><polygon class="cls-7" points="240.5 228.59 313.5 228.09 324.5 258.59 230 258.59 240.5 228.59"/><polygon class="cls-7" points="256.5 162.59 300.5 162.09 304.5 190.09 251.5 190.59 256.5 162.59"/></g></svg>